<?xml version="1.0" encoding="UTF-8" standalone="no"?>
<!-- Created with Inkscape (http://www.inkscape.org/) -->

<svg
   width="8.7974472mm"
   height="10.054039mm"
   viewBox="0 0 8.7974472 10.054039"
   version="1.1"
   id="svg5"
   xmlns:inkscape="http://www.inkscape.org/namespaces/inkscape"
   xmlns:sodipodi="http://sodipodi.sourceforge.net/DTD/sodipodi-0.dtd"
   xmlns="http://www.w3.org/2000/svg"
   xmlns:svg="http://www.w3.org/2000/svg">
  <sodipodi:namedview
     id="namedview7"
     pagecolor="#505050"
     bordercolor="#eeeeee"
     borderopacity="1"
     inkscape:showpageshadow="0"
     inkscape:pageopacity="0"
     inkscape:pagecheckerboard="0"
     inkscape:deskcolor="#505050"
     inkscape:document-units="mm"
     showgrid="false"
     inkscape:zoom="0.74386223"
     inkscape:cx="256.76798"
     inkscape:cy="562.60418"
     inkscape:window-width="1916"
     inkscape:window-height="1017"
     inkscape:window-x="0"
     inkscape:window-y="0"
     inkscape:window-maximized="1"
     inkscape:current-layer="layer1" />
  <defs
     id="defs2" />
  <g
     inkscape:label="Layer 1"
     inkscape:groupmode="layer"
     id="layer1"
     transform="translate(-78.121042,-119.10836)">
    <path
       fill-rule="evenodd"
       clip-rule="evenodd"
       d="m 82.992749,128.21982 h 1.964294 c 0.390578,0 0.707125,0.31654 0.70694,0.70691 0,0.1302 -0.105463,0.23566 -0.235665,0.23566 h -5.814517 c -0.130194,0 -0.235646,-0.10546 -0.235646,-0.23566 0,-0.39037 0.31655,-0.70691 0.707131,-0.70691 h 1.964488 v -0.63704 c -0.933555,-0.0324 -1.85943,-0.33835 -2.645502,-0.92197 l -0.524505,0.52433 c -0.122928,0.12271 -0.32185,0.12271 -0.444582,0 l -0.222095,-0.22191 c -0.122732,-0.12274 -0.122732,-0.32165 0,-0.44439 l 1.159371,-1.15917 c 0.0078,0.009 0.01562,0.0179 0.02342,0.0269 0.04665,0.0536 0.09328,0.10713 0.144089,0.15793 0.712431,0.71224 1.659517,1.1044 2.666918,1.1044 1.007375,0 1.954451,-0.39235 2.666895,-1.1044 0.712443,-0.71204 1.104767,-1.65875 1.104767,-2.66591 0,-1.00719 -0.392324,-1.95409 -1.104768,-2.66613 -0.04829,-0.0481 -0.09919,-0.0926 -0.150045,-0.13707 -0.01159,-0.0101 -0.02318,-0.0203 -0.03474,-0.0304 l 0.844974,-0.84459 c 0.122925,-0.12273 0.321865,-0.12273 0.444579,0 l 0.222118,0.2219 c 0.122713,0.12273 0.122713,0.32166 0,0.44439 l -0.210132,0.21012 c 1.37107,1.84469 1.224174,4.46076 -0.449871,6.13422 -0.72009,0.72009 -1.615149,1.15565 -2.547912,1.31117 z m -0.785865,-2.19935 c 1.735905,0 3.143091,-1.40661 3.143091,-3.14193 0,-1.73435 -1.406207,-3.14194 -3.143091,-3.14194 -1.735926,0 -3.143118,1.4066 -3.143118,3.14194 1.96e-4,1.73413 1.40621,3.14193 3.143118,3.14193 z m 0,-5.34129 c 1.215125,0 2.200116,0.9846 2.200116,2.19936 0,1.21473 -0.984991,2.19935 -2.200116,2.19935 -1.215152,0 -2.200145,-0.98462 -2.200145,-2.19935 0,-1.21476 0.984993,-2.19936 2.200145,-2.19936 z"
       fill="#ffffff"
       id="path377"
       style="stroke-width:0.264583" />
  </g>
</svg>
