<?xml version="1.0" encoding="UTF-8" standalone="no"?>
<!-- Created with Inkscape (http://www.inkscape.org/) -->

<svg
   width="11.377075mm"
   height="10.054176mm"
   viewBox="0 0 11.377075 10.054176"
   version="1.1"
   id="svg5"
   xmlns:inkscape="http://www.inkscape.org/namespaces/inkscape"
   xmlns:sodipodi="http://sodipodi.sourceforge.net/DTD/sodipodi-0.dtd"
   xmlns="http://www.w3.org/2000/svg"
   xmlns:svg="http://www.w3.org/2000/svg">
  <sodipodi:namedview
     id="namedview7"
     pagecolor="#505050"
     bordercolor="#eeeeee"
     borderopacity="1"
     inkscape:showpageshadow="0"
     inkscape:pageopacity="0"
     inkscape:pagecheckerboard="0"
     inkscape:deskcolor="#505050"
     inkscape:document-units="mm"
     showgrid="false"
     inkscape:zoom="0.74386223"
     inkscape:cx="256.76798"
     inkscape:cy="562.60418"
     inkscape:window-width="1916"
     inkscape:window-height="1017"
     inkscape:window-x="0"
     inkscape:window-y="0"
     inkscape:window-maximized="1"
     inkscape:current-layer="layer1" />
  <defs
     id="defs2" />
  <g
     inkscape:label="Layer 1"
     inkscape:groupmode="layer"
     id="layer1"
     transform="translate(-95.682719,-102.39087)">
    <path
       fill-rule="evenodd"
       clip-rule="evenodd"
       d="m 100.29183,112.43899 -0.787237,-0.22188 c -0.08522,-0.0236 -0.135943,-0.11195 -0.111601,-0.19442 l 2.856808,-9.5179 c 0.0244,-0.0825 0.11565,-0.13156 0.20088,-0.108 l 0.78724,0.2219 c 0.0852,0.0236 0.13594,0.11193 0.1116,0.1944 l -2.85681,9.51789 c -0.0243,0.0845 -0.11364,0.13158 -0.20088,0.10801 z m -1.506374,-2.42401 0.556524,-0.55954 c 0.06342,-0.0637 0.05728,-0.16402 -0.01024,-0.22188 l -2.170795,-1.8156 2.170795,-1.81559 c 0.06959,-0.0579 0.07366,-0.15822 0.01024,-0.22188 l -0.556524,-0.55954 c -0.06136,-0.0617 -0.165709,-0.0656 -0.231193,-0.008 l -2.819377,2.4928 c -0.06956,0.0618 -0.06956,0.16402 0,0.22575 l 2.819377,2.49089 c 0.06548,0.0579 0.167772,0.054 0.231193,-0.008 z m 8.222134,-2.48285 -2.81889,2.49058 c -0.0655,0.0579 -0.16785,0.054 -0.23133,-0.008 l -0.55681,-0.55946 c -0.0635,-0.0637 -0.0594,-0.16399 0.0102,-0.22185 l 2.17199,-1.81536 -2.17199,-1.81536 c -0.0675,-0.0579 -0.0737,-0.1582 -0.0102,-0.22186 l 0.55681,-0.55945 c 0.0614,-0.0637 0.16582,-0.0656 0.23133,-0.008 l 2.81889,2.49249 c 0.0696,0.0617 0.0696,0.16399 0,0.22572 z"
       fill="#ffffff"
       id="path315"
       style="stroke-width:0.264583" />
  </g>
</svg>
