<?xml version="1.0" encoding="UTF-8" standalone="no"?>
<!-- Created with Inkscape (http://www.inkscape.org/) -->

<svg
   width="15.630997mm"
   height="16.932678mm"
   viewBox="0 0 15.630997 16.932678"
   version="1.1"
   id="svg5"
   xmlns:inkscape="http://www.inkscape.org/namespaces/inkscape"
   xmlns:sodipodi="http://sodipodi.sourceforge.net/DTD/sodipodi-0.dtd"
   xmlns="http://www.w3.org/2000/svg"
   xmlns:svg="http://www.w3.org/2000/svg">
  <sodipodi:namedview
     id="namedview7"
     pagecolor="#505050"
     bordercolor="#eeeeee"
     borderopacity="1"
     inkscape:showpageshadow="0"
     inkscape:pageopacity="0"
     inkscape:pagecheckerboard="0"
     inkscape:deskcolor="#505050"
     inkscape:document-units="mm"
     showgrid="false"
     inkscape:zoom="0.74386223"
     inkscape:cx="256.76798"
     inkscape:cy="562.60418"
     inkscape:window-width="1916"
     inkscape:window-height="1017"
     inkscape:window-x="0"
     inkscape:window-y="0"
     inkscape:window-maximized="1"
     inkscape:current-layer="layer1" />
  <defs
     id="defs2" />
  <g
     inkscape:label="Layer 1"
     inkscape:groupmode="layer"
     id="layer1"
     transform="translate(-94.622935,-144.4801)">
    <path
       d="m 102.06017,161.41276 0.18907,-3.62617 c 0.003,-0.0596 -0.008,-0.11914 -0.0312,-0.17409 -0.0233,-0.055 -0.0586,-0.10401 -0.10334,-0.14354 -0.0448,-0.0395 -0.0978,-0.0685 -0.15523,-0.0848 -0.0575,-0.0163 -0.1178,-0.0195 -0.17661,-0.009 l -3.609371,0.6345 0.487416,-1.34458 c 0.01976,-0.0535 0.0223,-0.11187 0.0072,-0.16688 -0.01508,-0.055 -0.04699,-0.1039 -0.09128,-0.13986 l -3.953897,-3.2018 0.890784,-0.41598 c 0.06016,-0.0284 0.107876,-0.0778 0.134181,-0.13896 0.02631,-0.0611 0.02939,-0.12975 0.0087,-0.19298 l -0.781536,-2.40342 2.27738,0.4832 c 0.0617,0.0129 0.125968,0.004 0.181848,-0.0251 0.05591,-0.0291 0.100039,-0.0767 0.124883,-0.13456 l 0.441193,-1.03786 1.777365,1.90762 c 0.04064,0.0429 0.09409,0.0714 0.152321,0.0813 0.05824,0.01 0.11811,7.1e-4 0.170653,-0.0263 0.0526,-0.027 0.0949,-0.0703 0.12078,-0.12337 0.0259,-0.0531 0.0338,-0.11316 0.0226,-0.17119 l -0.857167,-4.4203 1.374007,0.79413 c 0.0322,0.0189 0.068,0.031 0.10517,0.0355 0.0371,0.004 0.0748,0.001 0.1106,-0.009 0.0358,-0.0106 0.0691,-0.0285 0.0978,-0.0525 0.0286,-0.024 0.0521,-0.0537 0.0688,-0.0871 l 1.39501,-2.73957 1.39499,2.73957 c 0.0168,0.0334 0.0402,0.0631 0.0688,0.0871 0.0287,0.024 0.0619,0.0419 0.0978,0.0525 0.0358,0.0106 0.0735,0.0138 0.11062,0.009 0.0371,-0.005 0.0729,-0.0166 0.10517,-0.0355 l 1.37401,-0.79414 -0.85717,4.4203 c -0.0112,0.058 -0.003,0.11809 0.0226,0.17119 0.0259,0.0531 0.0682,0.0964 0.12078,0.12337 0.0526,0.027 0.11242,0.0362 0.17066,0.0263 0.0582,-0.01 0.11165,-0.0385 0.15229,-0.0813 l 1.77737,-1.90762 0.44119,1.03786 c 0.0249,0.0579 0.069,0.10546 0.12488,0.13456 0.0559,0.0291 0.12017,0.038 0.18185,0.0251 l 2.2774,-0.4832 -0.78155,2.40342 c -0.0207,0.0632 -0.0176,0.13187 0.009,0.19298 0.0263,0.0611 0.074,0.11055 0.13417,0.13896 l 0.89077,0.41598 -3.95391,3.2018 c -0.0443,0.036 -0.0762,0.0849 -0.0913,0.13986 -0.0151,0.055 -0.0125,0.11338 0.007,0.16688 l 0.48742,1.34458 -3.60937,-0.63447 c -0.0588,-0.0101 -0.11919,-0.007 -0.17661,0.009 -0.0574,0.0163 -0.11049,0.0453 -0.15523,0.0848 -0.0447,0.0395 -0.0801,0.0886 -0.10337,0.14354 -0.0233,0.055 -0.034,0.11446 -0.0312,0.17409 l 0.18909,3.62617 z"
       fill="#cc0000"
       id="path59"
       style="stroke-width:0.264583" />
  </g>
</svg>
