<?xml version="1.0" encoding="UTF-8" standalone="no"?>
<!-- Created with Inkscape (http://www.inkscape.org/) -->

<svg
   width="8.4666662mm"
   height="8.4666662mm"
   viewBox="0 0 8.4666662 8.4666662"
   version="1.1"
   id="svg5"
   xmlns="http://www.w3.org/2000/svg"
   xmlns:svg="http://www.w3.org/2000/svg">
  <defs
     id="defs2">
    <clipPath
       id="clip0_2198_1839">
      <rect
         width="19.200001"
         height="19.200001"
         fill="#ffffff"
         transform="translate(6.3999,6.39999)"
         id="rect65"
         x="0"
         y="0" />
    </clipPath>
  </defs>
  <g
     id="layer1"
     transform="translate(-99.627743,-132.35109)">
    <circle
       cx="103.86108"
       cy="136.58443"
       r="4.2333331"
       fill="#cc0000"
       id="circle59"
       style="stroke-width:0.264583" />
    <g
       clip-path="url(#clip0_2198_1839)"
       id="g63"
       transform="matrix(0.26458333,0,0,0.26458333,99.627745,132.3511)">
      <path
         d="m 15.5712,25.6 0.2144,-4.1116 c 0.0031,-0.0676 -0.009,-0.135 -0.0354,-0.1974 -0.0264,-0.0623 -0.0665,-0.1179 -0.1172,-0.1627 -0.0507,-0.0448 -0.1109,-0.0776 -0.176,-0.0961 -0.0651,-0.0185 -0.1336,-0.0221 -0.2003,-0.0107 l -4.0925,0.7195 0.5527,-1.5246 c 0.0224,-0.0607 0.0253,-0.1268 0.0082,-0.1892 -0.0171,-0.0624 -0.0533,-0.1178 -0.1035,-0.1586 L 7.13843,16.2382 8.14845,15.7666 C 8.21667,15.7343 8.27077,15.6783 8.30059,15.609 8.33042,15.5397 8.33392,15.4619 8.31044,15.3902 L 7.42428,12.665 10.0065,13.2129 c 0.07,0.0146 0.1428,0.0045 0.2062,-0.0285 0.0634,-0.033 0.1134,-0.0869 0.1416,-0.1525 l 0.5003,-1.1768 2.0152,2.163 c 0.0461,0.0486 0.1067,0.0809 0.1727,0.0922 0.0661,0.0112 0.134,8e-4 0.1935,-0.0298 0.0596,-0.0306 0.1077,-0.0797 0.137,-0.1399 0.0293,-0.0602 0.0383,-0.1283 0.0257,-0.1941 l -0.9719,-5.012 1.5579,0.90045 c 0.0366,0.02143 0.0771,0.03513 0.1192,0.04024 0.0421,0.00512 0.0848,0.00153 0.1255,-0.01053 C 14.27,9.6526 14.3077,9.63232 14.3402,9.60509 14.3727,9.57785 14.3993,9.54423 14.4182,9.50631 L 16,6.40001 l 1.5817,3.1063 c 0.019,0.03792 0.0455,0.07154 0.078,0.09878 0.0325,0.02723 0.0702,0.04751 0.1109,0.05957 0.0406,0.01206 0.0833,0.01565 0.1254,0.01053 0.0421,-0.00511 0.0827,-0.01881 0.1193,-0.04024 l 1.5579,-0.90045 -0.9719,5.012 c -0.0127,0.0658 -0.0037,0.1339 0.0256,0.1941 0.0294,0.0602 0.0774,0.1093 0.137,0.1399 0.0596,0.0306 0.1275,0.041 0.1935,0.0298 0.066,-0.0113 0.1266,-0.0436 0.1727,-0.0922 l 2.0153,-2.163 0.5002,1.1768 c 0.0282,0.0656 0.0782,0.1195 0.1416,0.1525 0.0634,0.033 0.1363,0.0431 0.2062,0.0285 l 2.5822,-0.5479 -0.8861,2.7252 c -0.0235,0.0717 -0.02,0.1495 0.0098,0.2188 0.0299,0.0693 0.084,0.1253 0.1522,0.1576 l 1.01,0.4716 -4.4832,3.6304 c -0.0502,0.0408 -0.0864,0.0962 -0.1035,0.1586 -0.017,0.0624 -0.0142,0.1285 0.0082,0.1892 l 0.5527,1.5246 -4.0925,-0.7195 c -0.0667,-0.0114 -0.1352,-0.0078 -0.2003,0.0107 -0.0651,0.0185 -0.1252,0.0513 -0.176,0.0961 -0.0507,0.0448 -0.0908,0.1004 -0.1172,0.1627 -0.0264,0.0624 -0.0385,0.1298 -0.0353,0.1974 L 16.4288,25.6 Z"
         fill="#ffffff"
         id="path61" />
    </g>
  </g>
</svg>
