<?xml version="1.0" encoding="UTF-8" standalone="no"?>
<!-- Created with Inkscape (http://www.inkscape.org/) -->

<svg
   width="15.875mm"
   height="10.583313mm"
   viewBox="0 0 15.875 10.583313"
   version="1.1"
   id="svg5"
   xmlns:inkscape="http://www.inkscape.org/namespaces/inkscape"
   xmlns:sodipodi="http://sodipodi.sourceforge.net/DTD/sodipodi-0.dtd"
   xmlns="http://www.w3.org/2000/svg"
   xmlns:svg="http://www.w3.org/2000/svg">
  <sodipodi:namedview
     id="namedview7"
     pagecolor="#505050"
     bordercolor="#eeeeee"
     borderopacity="1"
     inkscape:showpageshadow="0"
     inkscape:pageopacity="0"
     inkscape:pagecheckerboard="0"
     inkscape:deskcolor="#505050"
     inkscape:document-units="mm"
     showgrid="false" />
  <defs
     id="defs2" />
  <g
     inkscape:label="Layer 1"
     inkscape:groupmode="layer"
     id="layer1"
     transform="translate(-130.42537,-145.52032)">
    <path
       d="m 143.27238,152.1055 h -0.64678 c -0.17785,0 -0.32337,0.14552 -0.32337,0.32337 v 0.64678 c 0,0.17785 0.14552,0.32337 0.32337,0.32337 h 0.64678 c 0.17785,0 0.32337,-0.14552 0.32337,-0.32337 v -0.64678 c 0,-0.17785 -0.14552,-0.32337 -0.32337,-0.32337 z"
       fill="#8990a5"
       id="path171"
       style="stroke-width:0.264583"
       inkscape:export-filename="./path171.svg"
       inkscape:export-xdpi="96"
       inkscape:export-ydpi="96" />
    <path
       d="m 146.30037,147.51938 v -0.33317 c 0,-0.91825 -0.74149,-1.6659 -1.65364,-1.6659 h -12.56771 c -0.91149,0 -1.65365,0.74765 -1.65365,1.6659 v 0.33317 z"
       fill="#8990a5"
       id="path173"
       style="stroke-width:0.264583" />
    <rect
       y="148.22493"
       width="15.875"
       height="1.2935188"
       fill="#8990a5"
       id="rect175"
       x="130.42537"
       style="stroke-width:0.264583" />
    <path
       fill-rule="evenodd"
       clip-rule="evenodd"
       d="m 130.42537,154.43775 v -4.33131 h 15.875 v 4.33131 c 0,0.91892 -0.74149,1.66589 -1.65364,1.66589 h -12.56771 c -0.91149,0 -1.65365,-0.74697 -1.65365,-1.66589 z m 2.31511,-0.33317 h 3.96875 c 0.18256,0 0.33073,-0.14927 0.33073,-0.33319 0,-0.18391 -0.14817,-0.33316 -0.33073,-0.33316 h -3.96875 c -0.18256,0 -0.33073,0.14925 -0.33073,0.33316 0,0.18392 0.14817,0.33319 0.33073,0.33319 z m 3.96875,-1.33273 h -3.96875 c -0.18256,0 -0.33073,-0.14925 -0.33073,-0.33316 0,-0.18391 0.14817,-0.33319 0.33073,-0.33319 h 3.96875 c 0.18256,0 0.33073,0.14928 0.33073,0.33319 0,0.18391 -0.14817,0.33316 -0.33073,0.33316 z m 6.61458,1.33273 c 0.54703,0 0.99219,-0.44847 0.99219,-0.99954 v -0.66635 c 0,-0.55108 -0.44516,-0.99955 -0.99219,-0.99955 h -0.66146 c -0.54702,0 -0.99218,0.44847 -0.99218,0.99955 v 0.66635 c 0,0.55107 0.44516,0.99954 0.99218,0.99954 z"
       fill="#8990a5"
       id="path177"
       style="stroke-width:0.264583" />
  </g>
</svg>
