<?xml version="1.0" encoding="UTF-8" standalone="no"?>
<!-- Created with Inkscape (http://www.inkscape.org/) -->

<svg
   width="11.140373mm"
   height="10.583374mm"
   viewBox="0 0 11.140373 10.583374"
   version="1.1"
   id="svg5"
   xmlns:inkscape="http://www.inkscape.org/namespaces/inkscape"
   xmlns:sodipodi="http://sodipodi.sourceforge.net/DTD/sodipodi-0.dtd"
   xmlns="http://www.w3.org/2000/svg"
   xmlns:svg="http://www.w3.org/2000/svg">
  <sodipodi:namedview
     id="namedview7"
     pagecolor="#505050"
     bordercolor="#eeeeee"
     borderopacity="1"
     inkscape:showpageshadow="0"
     inkscape:pageopacity="0"
     inkscape:pagecheckerboard="0"
     inkscape:deskcolor="#505050"
     inkscape:document-units="mm"
     showgrid="false" />
  <defs
     id="defs2" />
  <g
     inkscape:label="Layer 1"
     inkscape:groupmode="layer"
     id="layer1"
     transform="translate(-83.707659,-133.78259)">
    <path
       fill-rule="evenodd"
       clip-rule="evenodd"
       d="m 85.658428,141.54295 c 0.124105,0.1529 0.167206,0.34941 0.118393,0.53789 l -0.06439,0.25067 c -0.07218,0.27924 -0.331298,0.47474 -0.62988,0.47474 h -0.652728 l -0.210825,0.81264 c -0.02908,0.1143 -0.135011,0.19 -0.251849,0.19 -0.02077,0 -0.04154,-0.002 -0.06283,-0.007 -0.139165,-0.0336 -0.223288,-0.16945 -0.189016,-0.30381 l 0.258598,-0.99764 c 5.21e-4,-0.003 0.0016,-0.007 0.0026,-0.0105 l 0.25808,-0.99713 c 0.02856,-0.11179 0.132932,-0.19 0.251846,-0.19 h 0.660519 c 0.201478,0 0.387898,0.0877 0.511485,0.24064 z m -0.576443,0.762 c 0.06023,0 0.111644,-0.0391 0.126183,-0.0942 l 0.06491,-0.25117 c 0.0135,-0.0516 -0.0093,-0.0897 -0.02337,-0.10776 -0.01454,-0.018 -0.04725,-0.0481 -0.102296,-0.0481 H 84.68941 l -0.129817,0.50131 z"
       fill="#8990a5"
       id="path293"
       style="stroke-width:0.264583" />
    <path
       fill-rule="evenodd"
       clip-rule="evenodd"
       d="m 86.995714,142.52614 c 0.05924,-0.0842 0.165761,-0.12867 0.274876,-0.1021 0.139779,0.0342 0.223943,0.17309 0.189124,0.3094 l -0.259795,1.02121 c -0.0291,0.11642 -0.135096,0.19352 -0.252015,0.19352 -0.0208,0 -0.04157,-0.003 -0.06286,-0.008 -0.01926,-0.005 -0.0358,-0.0142 -0.05231,-0.0236 -0.0027,-0.001 -0.0053,-0.003 -0.008,-0.005 -0.06861,0.022 -0.140838,0.0358 -0.216165,0.0358 H 86.23859 c -0.223432,0 -0.42972,-0.0991 -0.567417,-0.27268 -0.1377,-0.17254 -0.185505,-0.39416 -0.131464,-0.60707 l 0.0343,-0.13531 c 0.07742,-0.30379 0.354378,-0.51673 0.673939,-0.51673 h 0.369962 c 0.137186,0 0.265536,0.0414 0.377772,0.10978 z m -0.91504,0.83584 c 0.03845,0.048 0.09613,0.0756 0.157961,0.0756 h 0.369967 c 0.08054,0 0.150178,-0.0531 0.169386,-0.12969 l 0.03429,-0.13584 c 0.01561,-0.0592 0.0021,-0.121 -0.03635,-0.16899 -0.03847,-0.048 -0.09612,-0.0756 -0.157983,-0.0756 h -0.369954 c -0.08054,0 -0.150167,0.0531 -0.169394,0.12968 l -0.0343,0.13583 c -0.01559,0.0592 -0.0021,0.121 0.03638,0.16899 z"
       fill="#8990a5"
       id="path295"
       style="stroke-width:0.264583" />
    <path
       fill-rule="evenodd"
       clip-rule="evenodd"
       d="m 91.646375,141.54295 c 0.124089,0.1529 0.16719,0.34941 0.118401,0.53789 l -0.06493,0.25067 c -0.07218,0.27924 -0.331285,0.47474 -0.629867,0.47474 h -0.652727 l -0.210318,0.81264 c -0.02908,0.1143 -0.135017,0.19 -0.25183,0.19 -0.0208,0 -0.04157,-0.002 -0.06284,-0.007 -0.139171,-0.0336 -0.223282,-0.16945 -0.189019,-0.30381 l 0.258604,-0.99764 c 5.03e-4,-0.003 0.0016,-0.007 0.0026,-0.0105 l 0.258077,-0.99713 c 0.02855,-0.11179 0.132927,-0.19 0.251857,-0.19 h 0.660506 c 0.200951,0 0.387376,0.0877 0.511493,0.24064 z m -0.575972,0.762 c 0.05972,0 0.111628,-0.0386 0.125651,-0.0942 l 0.0649,-0.25117 c 0.01352,-0.0516 -0.0093,-0.0897 -0.02336,-0.10776 -0.01453,-0.018 -0.04726,-0.0481 -0.102288,-0.0481 h -0.457993 l -0.129831,0.50131 z"
       fill="#8990a5"
       id="path297"
       style="stroke-width:0.264583" />
    <path
       fill-rule="evenodd"
       clip-rule="evenodd"
       d="m 93.122326,142.52614 c 0.05924,-0.0842 0.165762,-0.12867 0.275405,-0.1021 0.139779,0.0342 0.223943,0.17309 0.189151,0.3094 l -0.259821,1.02121 c -0.0291,0.11642 -0.135096,0.19352 -0.252016,0.19352 -0.02077,0 -0.04157,-0.003 -0.06287,-0.008 -0.01926,-0.005 -0.0358,-0.0142 -0.05231,-0.0236 -0.0027,-0.001 -0.0053,-0.003 -0.008,-0.005 -0.06861,0.022 -0.140811,0.0358 -0.216164,0.0358 H 92.36573 c -0.223441,0 -0.429737,-0.0996 -0.567426,-0.27215 -0.137689,-0.17254 -0.185499,-0.39416 -0.131471,-0.60707 l 0.03432,-0.13531 c 0.07742,-0.30379 0.354357,-0.51673 0.67392,-0.51673 h 0.369967 c 0.136658,0 0.265007,0.0414 0.377243,0.10978 z m -0.914479,0.83584 c 0.03844,0.048 0.09612,0.0756 0.157956,0.0756 h 0.369967 c 0.08054,0 0.150177,-0.0531 0.169386,-0.12969 l 0.03432,-0.13584 c 0.01558,-0.0592 0.0021,-0.121 -0.03638,-0.16899 -0.03844,-0.048 -0.09612,-0.0756 -0.157956,-0.0756 h -0.369967 c -0.08054,0 -0.150177,0.0531 -0.169412,0.12968 l -0.03429,0.13583 c -0.01558,0.0592 -0.0021,0.121 0.03638,0.16899 z"
       fill="#8990a5"
       id="path299"
       style="stroke-width:0.264583" />
    <path
       d="m 89.099098,142.37091 -0.496517,0.60216 -0.382746,-0.5797 c -0.08017,-0.12012 -0.241035,-0.15198 -0.358431,-0.0726 -0.118454,0.0799 -0.151024,0.2418 -0.07189,0.36192 l 0.467545,0.70819 -0.451009,0.54678 c -0.09155,0.1107 -0.07654,0.27575 0.0326,0.3682 0.0486,0.0402 0.10758,0.0601 0.166026,0.0601 0.07395,0 0.1474,-0.0319 0.198597,-0.094 l 1.293044,-1.56675 c 0.09157,-0.11073 0.07657,-0.27575 -0.03257,-0.3682 -0.110172,-0.0909 -0.273103,-0.0773 -0.364649,0.034 z"
       fill="#8990a5"
       id="path301"
       style="stroke-width:0.264583" />
    <path
       d="m 94.663233,141.31003 c -0.13208,-0.0341 -0.263208,0.0481 -0.295381,0.18246 l -0.487416,2.00512 c -0.03217,0.13433 0.04678,0.27016 0.177403,0.30377 0.02,0.005 0.0395,0.007 0.059,0.007 0.109669,0 0.2091,-0.0757 0.236405,-0.18997 l 0.487415,-2.00512 c 0.03268,-0.13385 -0.0463,-0.27019 -0.177429,-0.30377 z"
       fill="#8990a5"
       id="path303"
       style="stroke-width:0.264583" />
    <path
       fill-rule="evenodd"
       clip-rule="evenodd"
       d="m 92.436473,136.84963 -0.185975,0.75179 c -0.18296,0.73861 -0.837407,1.25399 -1.591892,1.25399 h -0.981181 l -0.454898,1.8369 c -0.02765,0.11311 -0.128667,0.19225 -0.243787,0.19225 h -1.256613 c -0.07742,0 -0.150786,-0.036 -0.198543,-0.0974 -0.04776,-0.0614 -0.06435,-0.14205 -0.04575,-0.21762 l 0.173408,-0.69955 h -1.185757 c -0.07437,0 -0.145756,-0.033 -0.193006,-0.0908 -0.04725,-0.0578 -0.06735,-0.1339 -0.05429,-0.20799 l 1.005298,-5.58011 c 0.02212,-0.12073 0.126179,-0.2085 0.247306,-0.2085 h 2.844985 c 0.368961,0 0.718793,0.16081 0.96057,0.44236 0.241776,0.28154 0.350361,0.65389 0.298079,1.02217 l -0.0095,0.066 c 0.251829,0.0213 0.482043,0.14559 0.652435,0.36575 0.241273,0.31198 0.323215,0.74926 0.219154,1.17082 z m -3.198786,1.69077 c 0.02765,-0.11313 0.128694,-0.19227 0.243787,-0.19227 v 5.3e-4 h 1.177714 c 0.522763,0 0.976656,-0.35764 1.103312,-0.8695 l 0.185976,-0.75179 c 0.06636,-0.26733 0.01709,-0.54888 -0.127159,-0.73607 -0.06284,-0.0812 -0.170392,-0.17806 -0.326734,-0.17907 l -0.04321,0.30488 c -0.138748,0.98261 -0.985706,1.72373 -1.969903,1.72373 h -0.808752 l -0.454898,1.8369 -0.173408,0.69953 h 0.73787 z"
       fill="#8990a5"
       id="path305"
       style="stroke-width:0.264583" />
  </g>
</svg>
