<?xml version="1.0" encoding="UTF-8" standalone="no"?>
<!-- Created with Inkscape (http://www.inkscape.org/) -->

<svg
   width="10.583344mm"
   height="10.583313mm"
   viewBox="0 0 10.583344 10.583313"
   version="1.1"
   id="svg5"
   xmlns:inkscape="http://www.inkscape.org/namespaces/inkscape"
   xmlns:sodipodi="http://sodipodi.sourceforge.net/DTD/sodipodi-0.dtd"
   xmlns="http://www.w3.org/2000/svg"
   xmlns:svg="http://www.w3.org/2000/svg">
  <sodipodi:namedview
     id="namedview7"
     pagecolor="#505050"
     bordercolor="#eeeeee"
     borderopacity="1"
     inkscape:showpageshadow="0"
     inkscape:pageopacity="0"
     inkscape:pagecheckerboard="0"
     inkscape:deskcolor="#505050"
     inkscape:document-units="mm"
     showgrid="false" />
  <defs
     id="defs2" />
  <g
     inkscape:label="Layer 1"
     inkscape:groupmode="layer"
     id="layer1"
     transform="translate(-110.66282,-145.52032)">
    <path
       d="m 117.07701,151.85451 c 0,-0.43479 -0.41373,-0.79846 -0.96213,-0.88217 v 1.76387 c 0.5484,-0.0837 0.96213,-0.44693 0.96213,-0.8817 z"
       fill="#8990a5"
       id="path523"
       style="stroke-width:0.264583" />
    <path
       d="m 114.67169,149.60931 c 0,0.43469 0.4137,0.79828 0.96213,0.88196 v -1.76389 c -0.54793,0.0837 -0.96213,0.44728 -0.96213,0.88193 z"
       fill="#8990a5"
       id="path525"
       style="stroke-width:0.264583" />
    <path
       fill-rule="evenodd"
       clip-rule="evenodd"
       d="m 110.66282,150.81198 c 0,-2.91778 2.37389,-5.29167 5.29167,-5.29167 2.91825,0 5.29167,2.37389 5.29167,5.29167 0,2.91777 -2.3739,5.29166 -5.29167,5.29166 -2.91778,0 -5.29167,-2.37389 -5.29167,-5.29166 z m 5.5217,2.511 c 0.77856,-0.0966 1.38044,-0.66675 1.38044,-1.36065 0,-0.69389 -0.60188,-1.26402 -1.38044,-1.36064 v -1.84195 c 0.52456,0.0856 0.9203,0.45738 0.9203,0.90188 0,0.127 0.10306,0.23006 0.23006,0.23006 0.127,0 0.23008,-0.10306 0.23008,-0.23006 0,-0.6939 -0.60188,-1.26402 -1.38044,-1.36065 v -0.24986 c 0,-0.127 -0.10308,-0.23008 -0.23008,-0.23008 -0.127,0 -0.23006,0.10308 -0.23006,0.23008 v 0.24939 c -0.77856,0.0966 -1.38043,0.66675 -1.38043,1.36064 0,0.6939 0.60187,1.26402 1.38043,1.36065 v 1.84198 c -0.52456,-0.0856 -0.9203,-0.45739 -0.9203,-0.90189 0,-0.127 -0.10305,-0.23008 -0.23005,-0.23008 -0.127,0 -0.23008,0.10308 -0.23008,0.23008 0,0.6939 0.60187,1.26402 1.38043,1.36065 v 0.25032 c 0,0.127 0.10306,0.23006 0.23006,0.23006 0.127,0 0.23008,-0.10306 0.23008,-0.23006 z"
       fill="#8990a5"
       id="path527"
       style="stroke-width:0.264583" />
  </g>
</svg>
