<?xml version="1.0" encoding="UTF-8" standalone="no"?>
<!-- Created with Inkscape (http://www.inkscape.org/) -->

<svg
   width="27.552673mm"
   height="10.523178mm"
   viewBox="0 0 27.552673 10.523178"
   version="1.1"
   id="svg5"
   xmlns:inkscape="http://www.inkscape.org/namespaces/inkscape"
   xmlns:sodipodi="http://sodipodi.sourceforge.net/DTD/sodipodi-0.dtd"
   xmlns="http://www.w3.org/2000/svg"
   xmlns:svg="http://www.w3.org/2000/svg">
  <sodipodi:namedview
     id="namedview7"
     pagecolor="#505050"
     bordercolor="#eeeeee"
     borderopacity="1"
     inkscape:showpageshadow="0"
     inkscape:pageopacity="0"
     inkscape:pagecheckerboard="0"
     inkscape:deskcolor="#505050"
     inkscape:document-units="mm"
     showgrid="false" />
  <defs
     id="defs2" />
  <g
     inkscape:label="Layer 1"
     inkscape:groupmode="layer"
     id="layer1"
     transform="translate(-161.22246,-172.22703)">
    <path
       d="m 176.78478,172.22703 h -0.7697 l -0.8659,6.4462 h -0.0241 l -0.95009,-6.4462 h -4.19724 l -0.95009,6.4462 h -0.0241 l -0.8659,-6.4462 h -3.64405 l 2.2129,10.24659 h 4.40168 l 0.9501,-6.63863 h 0.0241 l 0.95011,6.63863 h 4.40169 l 0.21648,-1.02227 c -0.56525,-0.60132 -0.8659,-1.39507 -0.8659,-2.41731 z"
       fill="#8990a5"
       id="path627"
       style="stroke-width:0.264583" />
    <path
       d="m 176.78478,172.22703 v 6.80701 c 0,1.01023 0.30067,1.81599 0.8659,2.41731 l 1.99642,-9.22432 z"
       fill="#8990a5"
       id="path629"
       style="stroke-width:0.264583" />
    <path
       d="m 182.47332,172.22703 v 6.63863 c 0,0.80579 -0.38486,1.11847 -0.80578,1.11847 -0.42093,0 -0.80577,-0.31268 -0.80577,-1.11847 v -6.63863 h -0.86592 l -2.04449,9.47689 c 0.82981,0.68551 2.08057,1.0463 3.71618,1.0463 3.09081,0 4.87074,-1.23873 4.87074,-3.70417 v -6.807 h -4.06496 z"
       fill="#8990a5"
       id="path631"
       style="stroke-width:0.264583" />
    <path
       d="m 161.82379,172.22703 h -0.60133 l 2.1768,10.24659 h 0.60133 z"
       fill="#8990a5"
       id="path633"
       style="stroke-width:0.264583" />
    <path
       d="m 165.04689,182.47362 h 0.60134 l -2.1768,-10.24659 h -0.60133 z"
       fill="#8990a5"
       id="path635"
       style="stroke-width:0.264583" />
    <path
       d="m 187.75306,172.72012 c 0,-0.0722 -0.0362,-0.0962 -0.10835,-0.0962 -0.0481,0 -0.10824,0.0241 -0.10824,0.0842 0,0.0721 0.0601,0.0842 0.12025,0.0962 0.0963,0.0241 0.25244,0.0601 0.25244,0.19242 0,0.16837 -0.1442,0.22851 -0.2885,0.22851 -0.15634,0 -0.26458,-0.0601 -0.26458,-0.22851 h 0.1443 c 0,0.0722 0.0361,0.12027 0.10824,0.12027 0.0601,0 0.13227,-0.012 0.13227,-0.0842 0,-0.0842 -0.0962,-0.0842 -0.15632,-0.0962 -0.0962,-0.024 -0.22849,-0.0601 -0.22849,-0.19243 0,-0.15634 0.1443,-0.2285 0.28863,-0.2285 0.13216,0 0.22847,0.0722 0.22847,0.20445 z"
       fill="#8990a5"
       id="path637"
       style="stroke-width:0.264583" />
    <path
       d="m 188.4505,173.20117 h -0.12039 l -0.18018,-0.57727 v 0.57727 h -0.14446 v -0.67348 h 0.24051 l 0.14446,0.49308 0.15637,-0.49308 h 0.22833 v 0.67348 h -0.13229 v -0.57727 z"
       fill="#8990a5"
       id="path639"
       style="stroke-width:0.264583" />
  </g>
</svg>
