<?xml version="1.0" encoding="UTF-8" standalone="no"?>
<!-- Created with Inkscape (http://www.inkscape.org/) -->

<svg
   width="30.162231mm"
   height="10.583229mm"
   viewBox="0 0 30.162231 10.583229"
   version="1.1"
   id="svg5"
   xmlns:inkscape="http://www.inkscape.org/namespaces/inkscape"
   xmlns:sodipodi="http://sodipodi.sourceforge.net/DTD/sodipodi-0.dtd"
   xmlns="http://www.w3.org/2000/svg"
   xmlns:svg="http://www.w3.org/2000/svg">
  <sodipodi:namedview
     id="namedview7"
     pagecolor="#505050"
     bordercolor="#eeeeee"
     borderopacity="1"
     inkscape:showpageshadow="0"
     inkscape:pageopacity="0"
     inkscape:pagecheckerboard="0"
     inkscape:deskcolor="#505050"
     inkscape:document-units="mm"
     showgrid="false" />
  <defs
     id="defs2" />
  <g
     inkscape:label="Layer 1"
     inkscape:groupmode="layer"
     id="layer1"
     transform="translate(-77.042238,-97.146711)">
    <path
       d="m 78.753489,97.14671 c -0.945938,0 -1.711253,0.758859 -1.711253,1.695733 v 7.192067 c 0,0.93615 0.765315,1.69543 1.711253,1.69543 h 7.260529 c 0.945198,0 1.710823,-0.75925 1.710823,-1.69543 v -0.0736 c -0.0318,-0.0132 -2.7763,-1.14723 -4.171236,-1.81176 -0.941123,1.14737 -2.154978,1.84349 -3.415321,1.84349 -2.1312,0 -2.854925,-1.84785 -1.845805,-3.06428 0.220036,-0.26513 0.594326,-0.51847 1.175245,-0.66029 0.908764,-0.22119 2.355003,0.13811 3.710517,0.58126 0.243813,-0.44497 0.448945,-0.93506 0.601742,-1.45684 h -4.17725 v -0.41916 h 2.153954 v -0.75152 h -2.608826 v -0.419471 h 2.608826 v -1.072062 c 0,0 0,-0.180589 0.184732,-0.180589 h 1.052963 v 1.252651 h 2.579052 v 0.419471 h -2.579052 v 0.75152 h 2.105157 c -0.201427,0.81762 -0.507286,1.5702 -0.891249,2.23084 0.638916,0.22894 1.212427,0.44611 1.639861,0.58793 1.425681,0.47262 1.825229,0.53038 1.876796,0.53641 v -5.486053 c 0,-0.936871 -0.765652,-1.695732 -1.710823,-1.695732 h -7.260518 z m 1.171462,5.73405 c -0.09147,0.001 -0.183357,0.006 -0.275945,0.015 -0.266867,0.0266 -0.767927,0.14327 -1.041858,0.38327 -0.821055,0.7094 -0.329636,2.00629 1.332169,2.00629 0.965994,0 1.931194,-0.61185 2.689437,-1.59155 -0.97753,-0.47255 -1.819487,-0.8232 -2.703803,-0.81304 z"
       fill="#8990a5"
       id="path709"
       style="stroke-width:0.264583" />
    <path
       d="m 106.30436,104.5039 -0.47678,1.02883 -0.48392,-1.02883 h -0.47281 l 0.73633,1.42245 v 0.99227 h 0.43365 v -0.99227 l 0.003,-0.006 0.73316,-1.41692 z m -3.49136,0.62243 0.33636,1.0015 h -0.68463 z m 0.43968,1.3058 0.16206,0.48636 h 0.45466 l -0.89509,-2.41478 h -0.34753 l -0.89204,2.41478 h 0.45495 l 0.16912,-0.48636 z m -3.392433,-0.77388 h -0.482812 v -0.82611 h 0.482812 c 0.242703,0 0.387663,0.21087 0.387663,0.41471 0,0.19942 -0.13567,0.41137 -0.387663,0.41137 z m 0.02453,-1.15443 h -0.944456 v 2.41477 h 0.437091 v -0.92837 h 0.507339 c 0.471279,0 0.800579,-0.30578 0.800579,-0.74337 0,-0.43762 -0.3293,-0.743 -0.800579,-0.743 z m -3.154071,2.4148 h 0.437462 v -2.41477 h -0.437466 z m -3.074939,-2.41472 v 2.41475 h 1.471481 v -0.32901 h -1.034389 v -2.08574 z m -2.490126,0.62243 0.335995,1.0015 H 90.81737 Z m 0.439685,1.3058 0.162057,0.48636 h 0.45421 l -0.895006,-2.41478 h -0.347159 l -0.892017,2.41478 h 0.454555 l 0.169095,-0.48636 z m 3.077289,-6.648794 H 92.807487 V 99.11567 h 2.174346 v -0.415819 h -2.174346 v -0.846032 h -0.969328 c -0.106283,0 -0.19214,0.08863 -0.19214,0.197565 v 0.648478 h -2.159106 v 0.415819 h 2.159106 v 0.667665 h -1.822344 v 0.415434 h 3.629713 c 0,0 -0.201084,0.78031 -1.19679,1.61894 -0.892043,-0.67099 -1.190122,-1.20534 -1.190122,-1.20534 H 90.09265 c 0.393991,0.67839 0.953744,1.22158 1.556597,1.65254 -0.553773,0.35747 -1.271905,0.70204 -2.200328,0.97787 v 0.49781 c 0,0 1.432454,-0.26847 2.816939,-1.07905 1.386734,0.80431 2.779448,1.07905 2.779448,1.07905 v -0.47122 c -0.891302,-0.32237 -1.597501,-0.67691 -2.152015,-1.01886 0.803196,-0.59121 1.507173,-1.39366 1.789245,-2.467174 z m 6.090975,-1.846215 h -0.976023 v 1.013317 h -2.405883 v 0.408059 h 2.405883 v 3.643123 c -0.0085,0.0835 -0.07472,0.14846 -0.157586,0.1529 h -0.4962 v 0.42209 h 1.265209 c 0.20034,-0.008 0.36015,-0.17319 0.36462,-0.37779 v -3.840334 h 0.39622 v -0.408059 h -0.39622 z m -2.058381,2.108789 c -0.03569,-0.07237 -0.108532,-0.122213 -0.193278,-0.122954 h -0.813223 l 0.63373,1.982314 h 0.961919 z m -2.402125,-2.156769 -1.119505,2.631169 h 0.858943 v 3.13078 h 0.939218 v -4.152893 h -0.340439 l 0.70731,-1.608984 z m 10.891386,5.618339 -0.34316,-1.15144 c -0.023,-0.0735 -0.09,-0.12666 -0.1696,-0.12666 h -0.90937 l 0.26379,0.88445 h -1.06919 v -1.71347 h 2.09947 v -0.40772 h -2.09947 v -0.8065 h 2.09947 v -0.407715 h -5.23936 v 0.407715 h 2.09929 v 0.8065 h -2.09929 v 0.40772 h 2.09929 v 1.71347 h -2.09929 v 0.4077 h 5.36742 l -0.004,-0.014 z m -4.27575,-4.701822 h 3.05787 v 0.601557 h 1.0922 v -0.712716 c -2.6e-4,-0.0015 -2.6e-4,-0.0022 -2.6e-4,-0.0041 0,-0.160272 -0.12647,-0.289889 -0.28284,-0.292476 h -1.76768 V 97.83701 h -1.143 v 0.560951 h -2.0483 v 1.009264 h 1.09199 z"
       fill="#8990a5"
       id="path711"
       style="stroke-width:0.264583" />
  </g>
</svg>
